<svg id="Layer_1" data-name="Layer 1" xmlns="http://www.w3.org/2000/svg" viewBox="0 0 871.32 222.49"><defs><style>.cls-1{fill:#427442;}</style></defs><title>takeit-logo-ngang</title><polygon class="cls-1" points="338.06 106.52 315.83 106.52 315.83 70.02 305.34 70.02 305.34 106.52 285.46 106.52 285.46 117.01 305.34 117.01 305.34 184.34 315.83 184.34 315.83 117.01 338.06 117.01 338.06 106.52"/><path class="cls-1" d="M415.22,213.41a38.88,38.88,0,0,0,53.45,1.48l2.47-2.22v12.14h10.5V186.22a38.91,38.91,0,1,0-66.42,27.19m7.4-47.62a28.5,28.5,0,1,1-8.31,20.11,27.49,27.49,0,0,1,8.31-20.11" transform="translate(-20.68 -40.47)"/><path class="cls-1" d="M580.78,199.46a27.5,27.5,0,0,1,8.29,20.1v5.25h10.5v-5.25a37.64,37.64,0,0,0-11.41-27.5,27.61,27.61,0,0,0-8-4.76l-4-1.4,4-1.4a28,28,0,0,0,8.15-4.86,37.58,37.58,0,0,0,11.3-27.4V147h-10.5v5.25a28.39,28.39,0,0,1-27.13,28.41H543.6V110.48H533.1V224.81h10.5V191.15h18.27a27.29,27.29,0,0,1,18.91,8.31" transform="translate(-20.68 -40.47)"/><path class="cls-1" d="M728.43,203.82l-8.54-6c-5.44,6.85-10.73,11.35-15.72,13.38-13.53,5.51-25.63,3.62-34.44-4.93l-1.52-1.47,59.2-29.1c-4.45-10.46-9.91-17.88-16.18-22.07A38.07,38.07,0,0,0,689.58,147a38.89,38.89,0,0,0-27.5,66.41,37.62,37.62,0,0,0,27.5,11.41,48.68,48.68,0,0,0,19.68-4.5c6.35-2.77,12.79-8.31,19.17-16.49m-66.07-9.71a28.81,28.81,0,0,1-1.19-8.21,28.36,28.36,0,0,1,28.41-28.42,27.8,27.8,0,0,1,15.83,4.8,28.74,28.74,0,0,1,7.28,7.1l1,1.42-50.84,25Z" transform="translate(-20.68 -40.47)"/><rect class="cls-1" x="759.56" y="70.01" width="10.5" height="10.49"/><rect class="cls-1" x="759.48" y="106.51" width="10.5" height="77.82"/><polygon class="cls-1" points="871.32 106.52 849.09 106.52 849.09 70.02 838.6 70.02 838.6 106.52 818.72 106.52 818.72 117.01 838.6 117.01 838.6 184.34 849.09 184.34 849.09 117.01 871.32 117.01 871.32 106.52"/><path class="cls-1" d="M50.21,263H56.6v-4.42c-9.2-1.31-11.81-5.36-12.05-18.35V175.82c-.25-15.27-3.87-20.49-16.17-23.28a.6.6,0,0,1,0-1.18c11.53-1.88,16.36-7.76,16.13-19.64V62.05c0-11.2,2.6-15.07,12.05-17.59v-4H48.76c-13.08,0-14.58,1.63-14.58,15.79v69.66c0,10.7-4,16.9-13.5,20.66v10.29c11.23,5.1,13.26,10,13.5,31.48v62.44c0,10.35,2.39,12.17,16,12.17" transform="translate(-20.68 -40.47)"/><path class="cls-1" d="M261.5,188.36c0-21.19,2.16-26.34,13.5-31.49V146.58c-9.46-3.76-13.5-10-13.5-20.66V56.26c0-14.07-1.36-15.55-14.6-15.79h-8.06v4c9.53,2.25,12.3,6.27,12.3,17.59v70.87c0,11,5.12,16.81,16.11,18.45a.6.6,0,0,1,.52.58.59.59,0,0,1-.47.6c-12.3,2.79-15.92,8-16.16,23.29v64.35c-.25,13-2.91,17.06-12.3,18.37V263h6.63c13.4,0,15.8-1.82,16-12.19Z" transform="translate(-20.68 -40.47)"/><path class="cls-1" d="M71.12,149.41a14.55,14.55,0,0,0,6.69,4.67,47.21,47.21,0,0,0,8.91,2.13,186.57,186.57,0,0,0,19.72,2c13.58.81,27.53.84,41.4.94,13.87-.07,27.82-.11,41.41-.91a184.38,184.38,0,0,0,19.73-2,47.69,47.69,0,0,0,8.9-2.13,14.61,14.61,0,0,0,6.68-4.69l.39-.52h1.24v.52c-.05,2.56-1.6,5-4,7a34.85,34.85,0,0,1-8.83,4.71,111.27,111.27,0,0,1-21.06,5.21,293.68,293.68,0,0,1-44.48,3.31,293.78,293.78,0,0,1-44.48-3.31,112,112,0,0,1-21.06-5.2,35.18,35.18,0,0,1-8.83-4.72c-2.37-2-3.93-4.45-4-7v-.52h1.25Z" transform="translate(-20.68 -40.47)"/></svg>